<svg xmlns="http://www.w3.org/2000/svg" width="1920" height="1080"><path d="M533,1294L-206,1366L740,1318Z" fill="#9d5960" stroke="#9d5960" stroke-width="1.51"/><path d="M740,1318L-206,1366L914,1331Z" fill="#9e636e" stroke="#9e636e" stroke-width="1.51"/><path d="M914,1331L-206,1366L1297,1360Z" fill="#9a6e85" stroke="#9a6e85" stroke-width="1.51"/><path d="M1499,1310L1297,1360L1766,1295Z" fill="#755a98" stroke="#755a98" stroke-width="1.51"/><path d="M1766,1295L1297,1360L1960,1311Z" fill="#674a8d" stroke="#674a8d" stroke-width="1.51"/><path d="M2060,385L2151,509L2189,280Z" fill="#a27997" stroke="#a27997" stroke-width="1.51"/><path d="M2189,280L2151,509L2218,227Z" fill="#9f7086" stroke="#9f7086" stroke-width="1.51"/><path d="M1372,-240L1562,-215L2223,-278Z" fill="#986060" stroke="#986060" stroke-width="1.51"/><path d="M1062,-289L1372,-240L2223,-278Z" fill="#a46f69" stroke="#a46f69" stroke-width="1.51"/><path d="M1756,-156L2006,-162L2223,-278Z" fill="#893d52" stroke="#893d52" stroke-width="1.51"/><path d="M1562,-215L1756,-156L2223,-278Z" fill="#925259" stroke="#925259" stroke-width="1.51"/><path d="M2006,-162L2045,-25L2223,-278Z" fill="#87374a" stroke="#87374a" stroke-width="1.51"/><path d="M2218,227L2151,509L2224,713Z" fill="#9a7a9f" stroke="#9a7a9f" stroke-width="1.51"/><path d="M1995,178L2218,227L2246,35Z" fill="#a05b63" stroke="#a05b63" stroke-width="1.51"/><path d="M2045,-25L1995,178L2246,35Z" fill="#a0515a" stroke="#a0515a" stroke-width="1.51"/><path d="M2223,-278L2045,-25L2246,35Z" fill="#873945" stroke="#873945" stroke-width="1.51"/><path d="M2218,227L2224,713L2246,35Z" fill="#9b6b7e" stroke="#9b6b7e" stroke-width="1.51"/><path d="M2156,888L2047,1136L2249,1170Z" fill="#60428a" stroke="#60428a" stroke-width="1.51"/><path d="M2047,1136L2118,1246L2249,1170Z" fill="#51287e" stroke="#51287e" stroke-width="1.51"/><path d="M2224,713L2156,888L2249,1170Z" fill="#6f5492" stroke="#6f5492" stroke-width="1.51"/><path d="M2246,35L2224,713L2249,1170Z" fill="#8c73a1" stroke="#8c73a1" stroke-width="1.51"/><path d="M1996,532L2012,758L2151,509Z" fill="#9f85ba" stroke="#9f85ba" stroke-width="1.51"/><path d="M1972,993L2047,1136L2156,888Z" fill="#70529b" stroke="#70529b" stroke-width="1.51"/><path d="M2012,758L2156,888L2224,713Z" fill="#866ca7" stroke="#866ca7" stroke-width="1.51"/><path d="M2151,509L2012,758L2224,713Z" fill="#937aae" stroke="#937aae" stroke-width="1.51"/><path d="M1995,178L2189,280L2218,227Z" fill="#a56775" stroke="#a56775" stroke-width="1.51"/><path d="M1995,178L2060,385L2189,280Z" fill="#a97186" stroke="#a97186" stroke-width="1.51"/><path d="M2060,385L1996,532L2151,509Z" fill="#a583ae" stroke="#a583ae" stroke-width="1.51"/><path d="M2012,758L1972,993L2156,888Z" fill="#8367aa" stroke="#8367aa" stroke-width="1.51"/><path d="M2047,1136L1960,1311L2118,1246Z" fill="#512584" stroke="#512584" stroke-width="1.51"/><path d="M1996,532L1841,699L2012,758Z" fill="#a28dc0" stroke="#a28dc0" stroke-width="1.51"/><path d="M1818,96L1995,178L2045,-25Z" fill="#ae656a" stroke="#ae656a" stroke-width="1.51"/><path d="M1830,-42L1818,96L2045,-25Z" fill="#ad6362" stroke="#ad6362" stroke-width="1.51"/><path d="M1861,1118L1960,1311L2047,1136Z" fill="#5f3a91" stroke="#5f3a91" stroke-width="1.51"/><path d="M1995,178L1817,313L2060,385Z" fill="#b48194" stroke="#b48194" stroke-width="1.51"/><path d="M1817,313L1875,476L2060,385Z" fill="#b491ac" stroke="#b491ac" stroke-width="1.51"/><path d="M1875,476L1996,532L2060,385Z" fill="#ad8db5" stroke="#ad8db5" stroke-width="1.51"/><path d="M546,-288L906,-266L1062,-289Z" fill="#c7936e" stroke="#c7936e" stroke-width="1.51"/><path d="M1790,959L1972,993L2012,758Z" fill="#8973b1" stroke="#8973b1" stroke-width="1.51"/><path d="M2006,-162L1830,-42L2045,-25Z" fill="#9d4f5a" stroke="#9d4f5a" stroke-width="1.51"/><path d="M1972,993L1861,1118L2047,1136Z" fill="#6c509c" stroke="#6c509c" stroke-width="1.51"/><path d="M1875,476L1841,699L1996,532Z" fill="#ae9bc6" stroke="#ae9bc6" stroke-width="1.51"/><path d="M1841,699L1790,959L2012,758Z" fill="#9887bc" stroke="#9887bc" stroke-width="1.51"/><path d="M1756,-156L1830,-42L2006,-162Z" fill="#9f585c" stroke="#9f585c" stroke-width="1.51"/><path d="M1818,96L1817,313L1995,178Z" fill="#bb8284" stroke="#bb8284" stroke-width="1.51"/><path d="M1861,1118L1766,1295L1960,1311Z" fill="#603d90" stroke="#603d90" stroke-width="1.51"/><path d="M1790,959L1861,1118L1972,993Z" fill="#7c67a7" stroke="#7c67a7" stroke-width="1.51"/><path d="M1666,675L1571,857L1790,959Z" fill="#a69ec9" stroke="#a69ec9" stroke-width="1.51"/><path d="M1640,219L1817,313L1818,96Z" fill="#c4958e" stroke="#c4958e" stroke-width="1.51"/><path d="M1666,675L1790,959L1841,699Z" fill="#a49bc6" stroke="#a49bc6" stroke-width="1.51"/><path d="M1560,490L1666,675L1875,476Z" fill="#c0b9d5" stroke="#c0b9d5" stroke-width="1.51"/><path d="M1817,313L1620,358L1875,476Z" fill="#c0a7b4" stroke="#c0a7b4" stroke-width="1.51"/><path d="M1620,358L1560,490L1875,476Z" fill="#c6b5c4" stroke="#c6b5c4" stroke-width="1.51"/><path d="M1666,675L1841,699L1875,476Z" fill="#b1a7cc" stroke="#b1a7cc" stroke-width="1.51"/><path d="M1592,1235L1766,1295L1861,1118Z" fill="#6d519d" stroke="#6d519d" stroke-width="1.51"/><path d="M1566,1078L1592,1235L1861,1118Z" fill="#7d68a8" stroke="#7d68a8" stroke-width="1.51"/><path d="M1790,959L1566,1078L1861,1118Z" fill="#8275ad" stroke="#8275ad" stroke-width="1.51"/><path d="M1596,-101L1818,96L1830,-42Z" fill="#b67568" stroke="#b67568" stroke-width="1.51"/><path d="M1756,-156L1596,-101L1830,-42Z" fill="#ae6d65" stroke="#ae6d65" stroke-width="1.51"/><path d="M1596,-101L1489,42L1640,219Z" fill="#ce917b" stroke="#ce917b" stroke-width="1.51"/><path d="M1596,-101L1640,219L1818,96Z" fill="#c48877" stroke="#c48877" stroke-width="1.51"/><path d="M1640,219L1620,358L1817,313Z" fill="#c9a6a6" stroke="#c9a6a6" stroke-width="1.51"/><path d="M1592,1235L1499,1310L1766,1295Z" fill="#715599" stroke="#715599" stroke-width="1.51"/><path d="M1571,857L1566,1078L1790,959Z" fill="#988dbe" stroke="#988dbe" stroke-width="1.51"/><path d="M1562,-215L1596,-101L1756,-156Z" fill="#ae7167" stroke="#ae7167" stroke-width="1.51"/><path d="M1062,-289L1236,-231L1372,-240Z" fill="#be8d78" stroke="#be8d78" stroke-width="1.51"/><path d="M1489,42L1454,132L1640,219Z" fill="#d7a28d" stroke="#d7a28d" stroke-width="1.51"/><path d="M1560,490L1482,610L1666,675Z" fill="#c8c3dd" stroke="#c8c3dd" stroke-width="1.51"/><path d="M1429,778L1571,857L1666,675Z" fill="#b8b3d5" stroke="#b8b3d5" stroke-width="1.51"/><path d="M1482,610L1429,778L1666,675Z" fill="#c4c1dd" stroke="#c4c1dd" stroke-width="1.51"/><path d="M1454,132L1383,382L1620,358Z" fill="#ddbdb3" stroke="#ddbdb3" stroke-width="1.51"/><path d="M1454,132L1620,358L1640,219Z" fill="#d6ada0" stroke="#d6ada0" stroke-width="1.51"/><path d="M1419,877L1566,1078L1571,857Z" fill="#a79eca" stroke="#a79eca" stroke-width="1.51"/><path d="M1383,382L1560,490L1620,358Z" fill="#d6c4ca" stroke="#d6c4ca" stroke-width="1.51"/><path d="M1566,1078L1409,1181L1592,1235Z" fill="#8972b1" stroke="#8972b1" stroke-width="1.51"/><path d="M1562,-215L1372,-240L1596,-101Z" fill="#b57b6e" stroke="#b57b6e" stroke-width="1.51"/><path d="M1372,-240L1489,42L1596,-101Z" fill="#c48774" stroke="#c48774" stroke-width="1.51"/><path d="M1409,1181L1499,1310L1592,1235Z" fill="#8165a9" stroke="#8165a9" stroke-width="1.51"/><path d="M1419,877L1318,1064L1566,1078Z" fill="#a49bc6" stroke="#a49bc6" stroke-width="1.51"/><path d="M1429,778L1419,877L1571,857Z" fill="#b8b2d6" stroke="#b8b2d6" stroke-width="1.51"/><path d="M1318,1064L1409,1181L1566,1078Z" fill="#9787bc" stroke="#9787bc" stroke-width="1.51"/><path d="M1383,382L1482,610L1560,490Z" fill="#d7cfdd" stroke="#d7cfdd" stroke-width="1.51"/><path d="M1314,198L1383,382L1454,132Z" fill="#e5bfaa" stroke="#e5bfaa" stroke-width="1.51"/><path d="M1383,382L1255,585L1482,610Z" fill="#dedae8" stroke="#dedae8" stroke-width="1.51"/><path d="M1372,-240L1232,-72L1489,42Z" fill="#ce9279" stroke="#ce9279" stroke-width="1.51"/><path d="M1409,1181L1297,1360L1499,1310Z" fill="#8368a5" stroke="#8368a5" stroke-width="1.51"/><path d="M1255,585L1429,778L1482,610Z" fill="#d1d0e6" stroke="#d1d0e6" stroke-width="1.51"/><path d="M1232,-72L1454,132L1489,42Z" fill="#dba080" stroke="#dba080" stroke-width="1.51"/><path d="M1232,-72L1314,198L1454,132Z" fill="#e3ae8d" stroke="#e3ae8d" stroke-width="1.51"/><path d="M1314,198L1285,357L1383,382Z" fill="#e7cdbf" stroke="#e7cdbf" stroke-width="1.51"/><path d="M1209,865L1318,1064L1419,877Z" fill="#b6b1d4" stroke="#b6b1d4" stroke-width="1.51"/><path d="M1255,585L1184,800L1429,778Z" fill="#d2d3e7" stroke="#d2d3e7" stroke-width="1.51"/><path d="M1209,865L1419,877L1429,778Z" fill="#c0bcdb" stroke="#c0bcdb" stroke-width="1.51"/><path d="M1184,800L1209,865L1429,778Z" fill="#c9c7e1" stroke="#c9c7e1" stroke-width="1.51"/><path d="M1236,-231L1232,-72L1372,-240Z" fill="#c69078" stroke="#c69078" stroke-width="1.51"/><path d="M1285,357L1255,585L1383,382Z" fill="#e5dada" stroke="#e5dada" stroke-width="1.51"/><path d="M1318,1064L1110,1171L1409,1181Z" fill="#9e8dc0" stroke="#9e8dc0" stroke-width="1.51"/><path d="M1110,1171L1297,1360L1409,1181Z" fill="#9279b5" stroke="#9279b5" stroke-width="1.51"/><path d="M1102,1272L914,1331L1297,1360Z" fill="#9278a9" stroke="#9278a9" stroke-width="1.51"/><path d="M1110,1171L1102,1272L1297,1360Z" fill="#967cb2" stroke="#967cb2" stroke-width="1.51"/><path d="M1232,-72L1097,163L1314,198Z" fill="#ebb993" stroke="#ebb993" stroke-width="1.51"/><path d="M1109,604L1255,585L1285,357Z" fill="#e9e7ed" stroke="#e9e7ed" stroke-width="1.51"/><path d="M1010,414L1109,604L1285,357Z" fill="#f0e8e4" stroke="#f0e8e4" stroke-width="1.51"/><path d="M1097,163L1285,357L1314,198Z" fill="#efcdb1" stroke="#efcdb1" stroke-width="1.51"/><path d="M1209,865L1110,1171L1318,1064Z" fill="#b0a9ce" stroke="#b0a9ce" stroke-width="1.51"/><path d="M1109,604L1184,800L1255,585Z" fill="#dfe0ee" stroke="#dfe0ee" stroke-width="1.51"/><path d="M1097,163L1010,414L1285,357Z" fill="#f4dbc5" stroke="#f4dbc5" stroke-width="1.51"/><path d="M983,865L1110,1171L1209,865Z" fill="#c0bbd8" stroke="#c0bbd8" stroke-width="1.51"/><path d="M1033,-105L1097,163L1232,-72Z" fill="#e9af85" stroke="#e9af85" stroke-width="1.51"/><path d="M1033,-105L1232,-72L1236,-231Z" fill="#d59c7d" stroke="#d59c7d" stroke-width="1.51"/><path d="M1062,-289L1033,-105L1236,-231Z" fill="#cc987b" stroke="#cc987b" stroke-width="1.51"/><path d="M1109,604L991,712L1184,800Z" fill="#e0e1ee" stroke="#e0e1ee" stroke-width="1.51"/><path d="M1184,800L983,865L1209,865Z" fill="#cfcde4" stroke="#cfcde4" stroke-width="1.51"/><path d="M991,712L983,865L1184,800Z" fill="#d9d8e9" stroke="#d9d8e9" stroke-width="1.51"/><path d="M101,1258L-206,1366L533,1294Z" fill="#96464d" stroke="#96464d" stroke-width="1.51"/><path d="M-74,-285L43,-253L546,-288Z" fill="#b56210" stroke="#b56210" stroke-width="1.51"/><path d="M855,313L1010,414L1097,163Z" fill="#fce1c4" stroke="#fce1c4" stroke-width="1.51"/><path d="M904,117L855,313L1097,163Z" fill="#ffd7ac" stroke="#ffd7ac" stroke-width="1.51"/><path d="M1033,-105L904,117L1097,163Z" fill="#f5be90" stroke="#f5be90" stroke-width="1.51"/><path d="M1010,414L850,556L1109,604Z" fill="#f6f4f4" stroke="#f6f4f4" stroke-width="1.51"/><path d="M850,556L991,712L1109,604Z" fill="#eeeef4" stroke="#eeeef4" stroke-width="1.51"/><path d="M983,865L837,1165L1110,1171Z" fill="#b9afcf" stroke="#b9afcf" stroke-width="1.51"/><path d="M914,1331L1102,1272L1110,1171Z" fill="#9e83b6" stroke="#9e83b6" stroke-width="1.51"/><path d="M837,1165L914,1331L1110,1171Z" fill="#a78bbe" stroke="#a78bbe" stroke-width="1.51"/><path d="M906,-266L1033,-105L1062,-289Z" fill="#cf9c7d" stroke="#cf9c7d" stroke-width="1.51"/><path d="M899,851L837,1165L983,865Z" fill="#cac0d5" stroke="#cac0d5" stroke-width="1.51"/><path d="M791,19L904,117L1033,-105Z" fill="#f3b883" stroke="#f3b883" stroke-width="1.51"/><path d="M899,851L983,865L991,712Z" fill="#dcdbea" stroke="#dcdbea" stroke-width="1.51"/><path d="M906,-266L791,19L1033,-105Z" fill="#e2a77c" stroke="#e2a77c" stroke-width="1.51"/><path d="M546,-288L693,-213L906,-266Z" fill="#cb9161" stroke="#cb9161" stroke-width="1.51"/><path d="M855,313L850,556L1010,414Z" fill="#fbedda" stroke="#fbedda" stroke-width="1.51"/><path d="M824,752L899,851L991,712Z" fill="#e2dde6" stroke="#e2dde6" stroke-width="1.51"/><path d="M850,556L824,752L991,712Z" fill="#ede8ea" stroke="#ede8ea" stroke-width="1.51"/><path d="M675,907L837,1165L899,851Z" fill="#cab9c8" stroke="#cab9c8" stroke-width="1.51"/><path d="M675,907L680,1157L837,1165Z" fill="#bda4b4" stroke="#bda4b4" stroke-width="1.51"/><path d="M733,559L850,556L855,313Z" fill="#fcecd9" stroke="#fcecd9" stroke-width="1.51"/><path d="M664,159L855,313L904,117Z" fill="#ffd09a" stroke="#ffd09a" stroke-width="1.51"/><path d="M693,-213L791,19L906,-266Z" fill="#dc9e6d" stroke="#dc9e6d" stroke-width="1.51"/><path d="M837,1165L740,1318L914,1331Z" fill="#a480a8" stroke="#a480a8" stroke-width="1.51"/><path d="M791,19L664,159L904,117Z" fill="#f9c083" stroke="#f9c083" stroke-width="1.51"/><path d="M733,559L824,752L850,556Z" fill="#f3e9e1" stroke="#f3e9e1" stroke-width="1.51"/><path d="M824,752L675,907L899,851Z" fill="#ddd0d5" stroke="#ddd0d5" stroke-width="1.51"/><path d="M599,300L733,559L855,313Z" fill="#fee3be" stroke="#fee3be" stroke-width="1.51"/><path d="M664,159L599,300L855,313Z" fill="#ffd39c" stroke="#ffd39c" stroke-width="1.51"/><path d="M693,-213L620,-18L791,19Z" fill="#e7a566" stroke="#e7a566" stroke-width="1.51"/><path d="M680,1157L740,1318L837,1165Z" fill="#ad85a9" stroke="#ad85a9" stroke-width="1.51"/><path d="M733,559L600,662L824,752Z" fill="#f1e2d6" stroke="#f1e2d6" stroke-width="1.51"/><path d="M600,662L675,907L824,752Z" fill="#e6d4cd" stroke="#e6d4cd" stroke-width="1.51"/><path d="M599,300L548,500L733,559Z" fill="#fee0bb" stroke="#fee0bb" stroke-width="1.51"/><path d="M620,-18L664,159L791,19Z" fill="#f5b56f" stroke="#f5b56f" stroke-width="1.51"/><path d="M314,1225L101,1258L533,1294Z" fill="#a65d68" stroke="#a65d68" stroke-width="1.51"/><path d="M600,662L503,732L675,907Z" fill="#e9cdbd" stroke="#e9cdbd" stroke-width="1.51"/><path d="M680,1157L533,1294L740,1318Z" fill="#a87995" stroke="#a87995" stroke-width="1.51"/><path d="M518,365L548,500L599,300Z" fill="#ffd7a4" stroke="#ffd7a4" stroke-width="1.51"/><path d="M675,907L472,904L680,1157Z" fill="#ccacad" stroke="#ccacad" stroke-width="1.51"/><path d="M548,500L600,662L733,559Z" fill="#fae3cb" stroke="#fae3cb" stroke-width="1.51"/><path d="M43,-253L315,-192L546,-288Z" fill="#c17225" stroke="#c17225" stroke-width="1.51"/><path d="M503,732L472,904L675,907Z" fill="#e1bfb1" stroke="#e1bfb1" stroke-width="1.51"/><path d="M472,904L417,1145L680,1157Z" fill="#c29798" stroke="#c29798" stroke-width="1.51"/><path d="M487,-38L620,-18L693,-213Z" fill="#e39b56" stroke="#e39b56" stroke-width="1.51"/><path d="M546,-288L487,-38L693,-213Z" fill="#d58f4e" stroke="#d58f4e" stroke-width="1.51"/><path d="M620,-18L530,199L664,159Z" fill="#f9b76e" stroke="#f9b76e" stroke-width="1.51"/><path d="M530,199L599,300L664,159Z" fill="#ffc783" stroke="#ffc783" stroke-width="1.51"/><path d="M417,1145L533,1294L680,1157Z" fill="#b27b8e" stroke="#b27b8e" stroke-width="1.51"/><path d="M487,-38L530,199L620,-18Z" fill="#f3a957" stroke="#f3a957" stroke-width="1.51"/><path d="M530,199L518,365L599,300Z" fill="#ffcb8c" stroke="#ffcb8c" stroke-width="1.51"/><path d="M548,500L503,732L600,662Z" fill="#f6d8bd" stroke="#f6d8bd" stroke-width="1.51"/><path d="M315,-192L487,-38L546,-288Z" fill="#d5863b" stroke="#d5863b" stroke-width="1.51"/><path d="M318,189L518,365L530,199Z" fill="#ffc075" stroke="#ffc075" stroke-width="1.51"/><path d="M487,-38L318,189L530,199Z" fill="#f7ac55" stroke="#f7ac55" stroke-width="1.51"/><path d="M518,365L332,541L548,500Z" fill="#ffd5a5" stroke="#ffd5a5" stroke-width="1.51"/><path d="M332,541L503,732L548,500Z" fill="#fbd5b0" stroke="#fbd5b0" stroke-width="1.51"/><path d="M318,189L270,322L518,365Z" fill="#fcbd72" stroke="#fcbd72" stroke-width="1.51"/><path d="M417,1145L314,1225L533,1294Z" fill="#af6c7b" stroke="#af6c7b" stroke-width="1.51"/><path d="M332,541L291,724L503,732Z" fill="#f3c7a2" stroke="#f3c7a2" stroke-width="1.51"/><path d="M307,860L472,904L503,732Z" fill="#e3b8a0" stroke="#e3b8a0" stroke-width="1.51"/><path d="M270,322L332,541L518,365Z" fill="#fdc98d" stroke="#fdc98d" stroke-width="1.51"/><path d="M245,1071L417,1145L472,904Z" fill="#c59186" stroke="#c59186" stroke-width="1.51"/><path d="M291,724L307,860L503,732Z" fill="#e8ba9c" stroke="#e8ba9c" stroke-width="1.51"/><path d="M307,860L245,1071L472,904Z" fill="#d29d8b" stroke="#d29d8b" stroke-width="1.51"/><path d="M232,-85L318,189L487,-38Z" fill="#ea9433" stroke="#ea9433" stroke-width="1.51"/><path d="M315,-192L232,-85L487,-38Z" fill="#d9842e" stroke="#d9842e" stroke-width="1.51"/><path d="M245,1071L314,1225L417,1145Z" fill="#b57476" stroke="#b57476" stroke-width="1.51"/><path d="M109,-64L54,109L232,-85Z" fill="#d87a11" stroke="#d87a11" stroke-width="1.51"/><path d="M150,324L87,486L270,322Z" fill="#f4b26d" stroke="#f4b26d" stroke-width="1.51"/><path d="M232,-85L54,109L318,189Z" fill="#e78d28" stroke="#e78d28" stroke-width="1.51"/><path d="M87,486L291,724L332,541Z" fill="#f5c092" stroke="#f5c092" stroke-width="1.51"/><path d="M270,322L87,486L332,541Z" fill="#f8bd82" stroke="#f8bd82" stroke-width="1.51"/><path d="M87,486L33,723L291,724Z" fill="#ebb186" stroke="#ebb186" stroke-width="1.51"/><path d="M42,866L245,1071L307,860Z" fill="#ce917b" stroke="#ce917b" stroke-width="1.51"/><path d="M245,1071L101,1258L314,1225Z" fill="#ac6166" stroke="#ac6166" stroke-width="1.51"/><path d="M150,324L270,322L318,189Z" fill="#f6af5f" stroke="#f6af5f" stroke-width="1.51"/><path d="M54,109L150,324L318,189Z" fill="#f09f44" stroke="#f09f44" stroke-width="1.51"/><path d="M291,724L42,866L307,860Z" fill="#dea485" stroke="#dea485" stroke-width="1.51"/><path d="M43,-253L232,-85L315,-192Z" fill="#c66d15" stroke="#c66d15" stroke-width="1.51"/><path d="M33,723L42,866L291,724Z" fill="#dda280" stroke="#dda280" stroke-width="1.51"/><path d="M43,-253L109,-64L232,-85Z" fill="#c86b0c" stroke="#c86b0c" stroke-width="1.51"/><path d="M30,1146L101,1258L245,1071Z" fill="#aa5e60" stroke="#aa5e60" stroke-width="1.51"/><path d="M42,866L30,1146L245,1071Z" fill="#b9796b" stroke="#b9796b" stroke-width="1.51"/><path d="M-92,977L30,1146L42,866Z" fill="#b57669" stroke="#b57669" stroke-width="1.51"/><path d="M-142,1244L-206,1366L101,1258Z" fill="#873748" stroke="#873748" stroke-width="1.51"/><path d="M54,109L-82,113L150,324Z" fill="#e49138" stroke="#e49138" stroke-width="1.51"/><path d="M-82,113L-112,409L150,324Z" fill="#e3984f" stroke="#e3984f" stroke-width="1.51"/><path d="M-38,472L87,486L150,324Z" fill="#ecad72" stroke="#ecad72" stroke-width="1.51"/><path d="M-112,409L-38,472L150,324Z" fill="#e6a56a" stroke="#e6a56a" stroke-width="1.51"/><path d="M33,723L-14,795L42,866Z" fill="#d2967b" stroke="#d2967b" stroke-width="1.51"/><path d="M-38,472L33,723L87,486Z" fill="#e8af85" stroke="#e8af85" stroke-width="1.51"/><path d="M-81,-46L54,109L109,-64Z" fill="#d17410" stroke="#d17410" stroke-width="1.51"/><path d="M43,-253L-81,-46L109,-64Z" fill="#c0650a" stroke="#c0650a" stroke-width="1.51"/><path d="M30,1146L-142,1244L101,1258Z" fill="#984757" stroke="#984757" stroke-width="1.51"/><path d="M-207,319L-112,409L-82,113Z" fill="#d88f4c" stroke="#d88f4c" stroke-width="1.51"/><path d="M-92,977L-144,1079L30,1146Z" fill="#a66561" stroke="#a66561" stroke-width="1.51"/><path d="M-38,472L-290,614L33,723Z" fill="#daa17f" stroke="#daa17f" stroke-width="1.51"/><path d="M-74,-285L-81,-46L43,-253Z" fill="#b05808" stroke="#b05808" stroke-width="1.51"/><path d="M-81,-46L-82,113L54,109Z" fill="#d27719" stroke="#d27719" stroke-width="1.51"/><path d="M-14,795L-92,977L42,866Z" fill="#c58874" stroke="#c58874" stroke-width="1.51"/><path d="M-290,614L-14,795L33,723Z" fill="#d2997c" stroke="#d2997c" stroke-width="1.51"/><path d="M-144,1079L-142,1244L30,1146Z" fill="#994f58" stroke="#994f58" stroke-width="1.51"/><path d="M-232,-264L-222,-61L-81,-46Z" fill="#ae5607" stroke="#ae5607" stroke-width="1.51"/><path d="M-232,-264L-81,-46L-74,-285Z" fill="#a85207" stroke="#a85207" stroke-width="1.51"/><path d="M-351,680L-246,977L-14,795Z" fill="#ba8472" stroke="#ba8472" stroke-width="1.51"/><path d="M-290,614L-351,680L-14,795Z" fill="#c59279" stroke="#c59279" stroke-width="1.51"/><path d="M-246,977L-92,977L-14,795Z" fill="#b77a6d" stroke="#b77a6d" stroke-width="1.51"/><path d="M-112,409L-290,614L-38,472Z" fill="#daa078" stroke="#daa078" stroke-width="1.51"/><path d="M-306,128L-207,319L-82,113Z" fill="#ce8034" stroke="#ce8034" stroke-width="1.51"/><path d="M-222,-61L-306,128L-82,113Z" fill="#c26c17" stroke="#c26c17" stroke-width="1.51"/><path d="M-222,-61L-82,113L-81,-46Z" fill="#c3680c" stroke="#c3680c" stroke-width="1.51"/><path d="M-208,1072L-144,1079L-92,977Z" fill="#a26461" stroke="#a26461" stroke-width="1.51"/><path d="M-246,977L-208,1072L-92,977Z" fill="#a36763" stroke="#a36763" stroke-width="1.51"/><path d="M-144,1079L-208,1072L-142,1244Z" fill="#955058" stroke="#955058" stroke-width="1.51"/><path d="M-207,319L-290,614L-112,409Z" fill="#d3996e" stroke="#d3996e" stroke-width="1.51"/><path d="M-208,1072L-206,1366L-142,1244Z" fill="#863850" stroke="#863850" stroke-width="1.51"/><path d="M-306,128L-290,614L-207,319Z" fill="#cb8f5b" stroke="#cb8f5b" stroke-width="1.51"/><path d="M-246,977L-351,680L-206,1366Z" fill="#9b6362" stroke="#9b6362" stroke-width="1.51"/><path d="M-208,1072L-246,977L-206,1366Z" fill="#8e4b57" stroke="#8e4b57" stroke-width="1.51"/><path d="M-306,128L-351,680L-290,614Z" fill="#c79470" stroke="#c79470" stroke-width="1.51"/><path d="M-232,-264L-306,128L-222,-61Z" fill="#ae590a" stroke="#ae590a" stroke-width="1.51"/></svg>